<?xml version="1.0" encoding="iso-8859-1"?>
<!-- Uploaded to: SVG Repo, www.svgrepo.com, Generator: SVG Repo Mixer Tools -->
<svg height="800px" width="800px" version="1.1" id="Layer_1" xmlns="http://www.w3.org/2000/svg" xmlns:xlink="http://www.w3.org/1999/xlink" 
	 viewBox="0 0 512 512" xml:space="preserve">
<path style="fill:#5D9BEB;" d="M0,256.006C0,397.402,114.606,512.004,255.996,512C397.394,512.004,512,397.402,512,256.006
	C512.009,114.61,397.394,0,255.996,0C114.606,0,0,114.614,0,256.006z"/>
<path style="fill:#4988DB;" d="M509.095,294.647c-0.121-0.117-0.235-0.241-0.357-0.357c-0.484-0.51-222.464-222.489-222.974-222.973
	c-7.505-7.897-18.037-12.885-29.763-12.885c-22.694,0-41.161,18.466-41.161,41.161c0,12.474,5.586,23.659,14.38,31.212
	c0.507,0.483,18.295,18.337,18.549,18.565v57.238h-65.856c-4.546,0-8.233,3.685-8.233,8.231c0,2.659,1.343,4.915,3.299,6.419
	c0.437,0.567,0.919,1.051,1.487,1.488c0.436,0.567,68.941,69.156,69.302,69.485V400.99c-0.063-0.051-0.138-0.087-0.202-0.137
	c-0.436-0.567-90.11-90.24-90.677-90.677c-0.436-0.567-0.918-1.049-1.485-1.485c-1.505-1.956-3.761-3.299-6.42-3.299h-32.928
	c-4.546,0-8.231,3.685-8.231,8.231c0,40.054,16.073,75.149,42.753,100.182c0.503,0.487,97.535,97.555,98.006,98.006
	c2.468,0.07,4.927,0.188,7.412,0.188C384.258,512.003,490.466,417.703,509.095,294.647z"/>
<path style="fill:#F4F6F9;" d="M395.945,305.392h-32.928c-4.546,0-8.233,3.686-8.233,8.231c0,4.545,3.686,8.231,8.233,8.231h24.435
	c-4.061,63.702-55.189,111.305-123.219,114.898V223.072h65.856c4.546,0,8.231-3.686,8.231-8.231c0-4.546-3.685-8.231-8.231-8.231
	h-65.856v-66.688c18.763-3.825,32.928-20.452,32.928-40.327c0-22.694-18.466-41.161-41.159-41.161s-41.159,18.466-41.159,41.161
	c0,19.875,14.165,36.502,32.928,40.327v66.688h-65.856c-4.546,0-8.231,3.686-8.231,8.231c0,4.546,3.686,8.231,8.231,8.231h65.856
	v213.682c-68.03-3.594-119.157-51.196-123.219-114.898h24.435c4.546,0,8.231-3.686,8.231-8.231c0-4.545-3.686-8.232-8.231-8.232
	h-32.928c-4.546,0-8.231,3.686-8.231,8.232c0,79.779,63.701,139.945,148.176,139.945s148.176-60.164,148.176-139.945
	C404.176,309.078,400.49,305.392,395.945,305.392z M231.305,99.593c0-13.618,11.077-24.697,24.695-24.697
	c13.618,0,24.695,11.077,24.695,24.697S269.618,124.288,256,124.288C242.382,124.288,231.305,113.211,231.305,99.593z"/>
</svg>