<?xml version="1.0" encoding="iso-8859-1"?>
<!-- Uploaded to: SVG Repo, www.svgrepo.com, Generator: SVG Repo Mixer Tools -->
<svg height="800px" width="800px" version="1.1" id="Layer_1" xmlns="http://www.w3.org/2000/svg" xmlns:xlink="http://www.w3.org/1999/xlink" 
	 viewBox="0 0 504.131 504.131" xml:space="preserve">
<circle style="fill:#0EE565;" cx="252.065" cy="252.069" r="252.062"/>
<path style="fill:#00C67F;" d="M73.834,73.823c98.43-98.43,258.032-98.43,356.462,0c98.43,98.446,98.446,258.032,0,356.478"/>
<g>
	<path style="fill:#1D2321;" d="M477.755,345.009c-12.209,0-23.394-4.246-32.248-11.311c-8.854,7.058-20.047,11.311-32.248,11.311
		c-12.193,0-23.387-4.246-32.24-11.311c-8.854,7.058-20.039,11.311-32.24,11.311c-12.201,0-23.387-4.246-32.24-11.311
		c-8.854,7.058-20.047,11.311-32.248,11.311c-12.193,0-23.394-4.246-32.24-11.311c-8.862,7.058-20.047,11.311-32.24,11.311
		s-23.394-4.246-32.24-11.311c-8.862,7.058-20.047,11.311-32.248,11.311c-12.193,0-23.387-4.246-32.248-11.311
		c-8.846,7.058-20.047,11.311-32.232,11.311c-12.201,0-23.402-4.246-32.248-11.311c-8.846,7.058-20.047,11.311-32.248,11.311
		c-3.064,0-6.034-0.37-8.956-0.874c5.325,13.54,11.721,26.537,19.204,38.833c8.184-1.662,15.707-5.167,22-10.185
		c8.846,7.058,20.047,11.311,32.248,11.311c12.186,0,23.387-4.246,32.232-11.311c8.862,7.058,20.055,11.311,32.248,11.311
		c12.201,0,23.387-4.246,32.248-11.311c8.846,7.058,20.047,11.311,32.24,11.311s23.379-4.246,32.24-11.311
		c8.846,7.058,20.047,11.311,32.24,11.311c12.201,0,23.394-4.246,32.248-11.311c8.854,7.058,20.039,11.311,32.24,11.311
		c12.201,0,23.387-4.246,32.24-11.311c8.854,7.058,20.047,11.311,32.24,11.311c12.201,0,23.394-4.246,32.248-11.311
		c6.309,5.018,13.816,8.523,22,10.185c7.475-12.296,13.879-25.293,19.204-38.849C483.789,344.639,480.819,345.009,477.755,345.009z"
		/>
	<path style="fill:#1D2321;" d="M446.484,412.499c-0.307-0.228-0.662-0.402-0.969-0.646c-8.854,7.058-20.047,11.311-32.248,11.311
		c-12.193,0-23.387-4.246-32.24-11.311c-8.854,7.058-20.039,11.311-32.24,11.311c-12.201,0-23.387-4.246-32.24-11.311
		c-8.854,7.058-20.047,11.311-32.248,11.311c-12.193,0-23.394-4.246-32.24-11.311c-8.862,7.058-20.047,11.311-32.24,11.311
		s-23.394-4.246-32.24-11.311c-8.862,7.058-20.047,11.311-32.248,11.311c-12.193,0-23.387-4.246-32.248-11.311
		c-8.846,7.058-20.047,11.311-32.232,11.311c-12.201,0-23.402-4.246-32.248-11.311c-0.299,0.244-0.646,0.417-0.953,0.646
		c14.675,17.77,31.783,33.461,50.751,46.647c5.356-1.938,10.311-4.726,14.675-8.216c8.862,7.058,20.055,11.311,32.248,11.311
		c12.201,0,23.387-4.246,32.248-11.311c8.846,7.058,20.047,11.311,32.24,11.311s23.379-4.246,32.24-11.311
		c8.846,7.058,20.047,11.311,32.24,11.311c12.201,0,23.394-4.246,32.248-11.311c8.854,7.058,20.039,11.311,32.24,11.311
		c12.201,0,23.387-4.246,32.24-11.311c4.38,3.489,9.334,6.278,14.683,8.216C414.685,445.96,431.785,430.285,446.484,412.499z"/>
	<path style="fill:#1D2321;" d="M431.423,287.027c-1.15-1.906-3.23-3.08-5.443-3.08h-40.094V237.04c0-3.111-2.505-5.632-5.616-5.632
		h-40.353h-70.443c-3.135,0-5.648,2.521-5.648,5.632v46.907h-28.388V237.04c0-3.111-2.536-5.632-5.648-5.632h-21.551h-2.757v-60.566
		c0-2.048-1.646-3.71-3.671-3.71h-13.21v-6.491c0-3.119-2.536-5.632-5.679-5.632h-4.191v-19.803h19.936
		c1.221,0,2.237-1.016,2.237-2.261c0-1.229-1.016-2.245-2.237-2.245h-19.936v-4.647h19.936c1.221,0,2.237-1.032,2.237-2.276
		c0-1.213-1.016-2.229-2.237-2.229h-19.936v-4.663h19.936c1.221,0,2.237-1,2.237-2.245c0-1.26-1.016-2.245-2.237-2.245h-19.936V95.5
		c0-1.182-0.977-2.127-2.135-2.127s-2.064,0.937-2.064,2.127v16.896h-19.984c-1.166,0-2.261,0.985-2.261,2.245
		c0,1.245,1.095,2.245,2.261,2.245h19.984v4.663h-19.984c-1.166,0-2.261,1.016-2.261,2.229c0,1.245,1.095,2.276,2.261,2.276h19.984
		v4.647h-19.984c-1.166,0-2.261,1.016-2.261,2.245c0,1.245,1.095,2.261,2.261,2.261h19.984v19.803h-4.269
		c-3.104,0-5.64,2.505-5.64,5.632v6.491h-12.516c-2.024,0-3.671,1.662-3.671,3.71v60.566h-24.292c-3.111,0-5.664,2.521-5.664,5.632
		v46.907H78.159c-2.04,0-3.954,0.985-5.144,2.599c-1.174,1.631-1.56,3.757-0.977,5.679l19.157,61.692
		c0.827,2.662,3.308,4.506,6.105,4.506h296.724c2.387,0,4.6-1.371,5.711-3.458l18.999-36.706l0,0l12.91-24.986
		C432.644,291.289,432.589,288.918,431.423,287.027z"/>
</g>
<g>
	<path style="fill:#363D3B;" d="M431.423,287.027c-1.15-1.906-3.23-3.08-5.443-3.08h-40.094V237.04c0-3.111-2.505-5.632-5.616-5.632
		h-40.353h-70.443c-3.135,0-5.648,2.521-5.648,5.632v26.782l94.602,94.602h35.612c2.387,0,4.6-1.371,5.711-3.458l18.999-36.706
		l12.91-24.986C432.644,291.289,432.589,288.918,431.423,287.027z"/>
	<path style="fill:#363D3B;" d="M231.822,231.81l3.206,3.214C234.453,233.543,233.295,232.393,231.822,231.81z"/>
	<path style="fill:#363D3B;" d="M170.271,155.01c-3.104,0-5.64,2.505-5.64,5.632v3.986l40.85,40.865V170.85
		c0-2.048-1.646-3.71-3.671-3.71h-13.21v-6.491c0-3.119-2.536-5.632-5.679-5.632h-4.191v-19.803h19.936
		c1.221,0,2.237-1.016,2.237-2.261c0-1.229-1.016-2.245-2.237-2.245h-19.936v-4.647h19.936c1.221,0,2.237-1.032,2.237-2.276
		c0-1.213-1.016-2.229-2.237-2.229h-19.936v-4.663h19.936c1.221,0,2.237-1,2.237-2.245c0-1.26-1.016-2.245-2.237-2.245h-19.936
		V95.508c0-1.182-0.977-2.127-2.135-2.127s-2.064,0.937-2.064,2.127v16.896h-19.984c-1.166,0-2.261,0.985-2.261,2.245
		c0,1.245,1.095,2.245,2.261,2.245h19.984v4.663h-19.984c-1.166,0-2.261,1.016-2.261,2.229c0,1.245,1.095,2.276,2.261,2.276h19.984
		v4.647h-19.984c-1.166,0-2.261,1.016-2.261,2.245c0,1.245,1.095,2.261,2.261,2.261h19.984v19.803h-4.261V155.01z"/>
</g>
<g>
	<circle style="fill:#0EE565;" cx="158.188" cy="315.242" r="8.365"/>
	<circle style="fill:#0EE565;" cx="205.946" cy="315.242" r="8.365"/>
	<circle style="fill:#0EE565;" cx="253.696" cy="315.242" r="8.365"/>
	<circle style="fill:#0EE565;" cx="301.454" cy="315.242" r="8.365"/>
	<circle style="fill:#0EE565;" cx="349.204" cy="315.242" r="8.365"/>
</g>
</svg>